<svg id="Layer_1" data-name="Layer 1" xmlns="http://www.w3.org/2000/svg" xmlns:xlink="http://www.w3.org/1999/xlink" viewBox="0 0 1967.38 1097"><defs><style>.cls-1{fill:none;}.cls-2{clip-path:url(#clip-path);}.cls-3{fill:url(#linear-gradient);}.cls-4{fill:#ef8e9a;}.cls-10,.cls-5{fill:#d54c92;}.cls-5{opacity:0.7;}.cls-6{fill:#b7449f;}.cls-7{fill:#9e3683;}.cls-8{fill:url(#linear-gradient-2);}.cls-9{fill:#e97198;}.cls-11,.cls-12{opacity:0.3;}.cls-11{fill:url(#linear-gradient-3);}.cls-12{fill:url(#linear-gradient-4);}.cls-13{opacity:0.5;fill:url(#radial-gradient);}.cls-14{fill:#58276f;}.cls-15{fill:#fff;stroke:#000;stroke-miterlimit:10;}.cls-16{fill:url(#radial-gradient-2);}.cls-17{fill:#1e052d;}.cls-18{fill:#893176;}.cls-19{fill:url(#linear-gradient-5);}.cls-20{fill:url(#linear-gradient-6);}.cls-21{fill:url(#linear-gradient-7);}</style><clipPath id="clip-path" transform="translate(2.38 3)"><rect class="cls-1" x="1.5" y="-2.5" width="1916" height="1086"/></clipPath><linearGradient id="linear-gradient" x1="572.25" y1="541.22" x2="1354.77" y2="541.22" gradientTransform="translate(420 1499) rotate(-90)" gradientUnits="userSpaceOnUse"><stop offset="0.08" stop-color="#837bac"/><stop offset="0.29" stop-color="#a97bac"/><stop offset="0.58" stop-color="#d77bac"/><stop offset="0.8" stop-color="#f47bac"/><stop offset="0.93" stop-color="#ff7bac"/></linearGradient><linearGradient id="linear-gradient-2" x1="107.3" y1="774.5" x2="1810.7" y2="774.5" gradientUnits="userSpaceOnUse"><stop offset="0.08" stop-color="#d54c92"/><stop offset="0.56" stop-color="#e953a4"/><stop offset="0.93" stop-color="#f456ad"/></linearGradient><linearGradient id="linear-gradient-3" x1="903.56" y1="771.99" x2="1168.13" y2="771.99" gradientUnits="userSpaceOnUse"><stop offset="0.64" stop-color="#58276f"/><stop offset="0.75" stop-color="#762e78"/><stop offset="0.86" stop-color="#933480"/><stop offset="0.93" stop-color="#9e3683"/></linearGradient><linearGradient id="linear-gradient-4" x1="15.31" y1="774.6" x2="852" y2="774.6" xlink:href="#linear-gradient-3"/><radialGradient id="radial-gradient" cx="346.96" cy="913.27" fy="864.6683196361188" r="263.4" gradientUnits="userSpaceOnUse"><stop offset="0" stop-color="#d54c92"/><stop offset="0.57" stop-color="#58276f"/></radialGradient><radialGradient id="radial-gradient-2" cx="1332.8" cy="1065.57" fx="1760.8841617755636" fy="1065.56605822024" r="432.41" gradientTransform="matrix(1, 0, 0, -1, 0, 2005.03)" gradientUnits="userSpaceOnUse"><stop offset="0" stop-color="#d54c92"/><stop offset="1" stop-color="#58276f" stop-opacity="0.5"/></radialGradient><linearGradient id="linear-gradient-5" x1="739" y1="762" x2="739" y2="762" xlink:href="#linear-gradient-3"/><linearGradient id="linear-gradient-6" x1="867" y1="756" x2="867" y2="756" xlink:href="#linear-gradient-3"/><linearGradient id="linear-gradient-7" x1="856" y1="735" x2="856" y2="735" xlink:href="#linear-gradient-3"/></defs><g class="cls-2"><path class="cls-3" d="M2,1075.44Q.14,753,.5,430.5l0-23.19Q.82,202.16,2-3H1922V1076Z" transform="translate(2.38 3)"/><circle class="cls-4" cx="1035.88" cy="322.5" r="217.5"/><path class="cls-5" d="M1828.56,516.82s-153-37.81-259-23.21-291.17,78.6-402.42,55.58c-73-15.12-158.13-55.45-294.65-43.79-14.68,1.25-26.72,2.82-34.66,4-10.29,1.36-27.18,3.55-48,6-227,26.67-340.47,40-458.82,6.88-66.42-18.6-171.23-62.88-171.23-62.88h0v393H1828.56Z" transform="translate(2.38 3)"/><path class="cls-6" d="M1288.37,657.46c-162.85-18.33-216.26-74.83-216.26-74.83L934.28,637l-271.92,2.18-30.58,24.57L766.19,999.83l695.3-233Z" transform="translate(2.38 3)"/><path class="cls-6" d="M1343.56,438.15C1490.29,360.73,1519.64,288,1519.64,288h150.18L1927,189.46l38,11.73L1963.27,566,1221,604.73Z" transform="translate(2.38 3)"/><path class="cls-6" d="M614.09,400C469.33,323.16,440.38,251,440.38,251H292.22L38.47,153.24,1,164.88l1.7,362L735,565.24Z" transform="translate(2.38 3)"/><path class="cls-7" d="M1411.65,554.73C1532.15,508,1556.25,464,1556.25,464h123.33l211.23-59.54,31.19,7.09L1920.58,632,1311,655.38Z" transform="translate(2.38 3)"/><path class="cls-7" d="M481.28,500.38C367.88,456.36,345.2,415,345.2,415H229.13L30.35,359,1,365.64,2.33,573.09,576,595.1Z" transform="translate(2.38 3)"/><path class="cls-8" d="M1797.41,589.88c-269.43,48.23-311.08,86.66-311.08,86.66L1463.78,658l-10.07-8.3-25-20.59,30.14-39.19-12.41-61.79,3.54-36.17-96.6,23.36-39.88,53.5,31,15.07-9.75,45.22-39,19.59v94.19H1181.45l-55-55.76L1051.17,718H970.52l-79.76,24.87-66.47-69.32,27.47-44.46,23.93-60.29-51.4-10.55V491.92H737.43v33.16L755.16,550H710V502.47l-51.41,25.62-21.27-36.17L607.15,455l-27.47,13.56L562,486.65l23.93,15.82L562,522.82v35.41h-51.4l-18.61,21.1L345.7,598.93l-52.46-9.19-51.23-21-21.27-51.24L190.6,502.47,133,533.37,108.18,533,108,634.91,107.3,1094H1809.82l.88-514.76Z" transform="translate(2.38 3)"/><path class="cls-9" d="M347,571c192,12,349,68,349,68l205,37,185,19s0,43,185-6,247-11,344-47,306-53,306-53v466L0,1083,1,571Z" transform="translate(2.38 3)"/><path class="cls-10" d="M1802.74,740.46s-153-37.81-259-23.21-291.17,78.6-402.42,55.58c-73-15.11-158.12-55.45-294.64-43.79-14.68,1.25-26.73,2.82-34.67,4-10.29,1.36-27.18,3.55-48,6-227,26.68-340.46,40-458.82,6.88C238.76,727.29,134,683,134,683h0v393H1802.74Z" transform="translate(2.38 3)"/><polygon class="cls-11" points="903.56 729.99 931.38 765 996.38 791 1022.38 814 1146.38 801 1168.13 779.43 1049.21 750.91 996.38 739.08 903.56 729.99"/><path class="cls-12" d="M847,729h5q-28.35,42.57-56.69,85.14h-98V776.73l20-28.06A231.33,231.33,0,0,0,673,750c-2.37.3-4.7.64-7,1l.31,51.23-58-28.9-24,40.81-34,41.66-31-15.31-20-20.4,27-17.86-27-23v-40h-58l-21-23.81-165-22.11-59.2,10.36-57.8,23.65-24,57.82-34,17-65-34.86L41,721l507,45q44-5.32,88-10.83c38.92-4.87,57.45-7.31,88-11.17C753.25,740.31,795.26,735.09,847,729Z" transform="translate(2.38 3)"/><path class="cls-13" d="M3.9,791.88C156.67,728.31,233,799.09,233,799.09s-38.42-2.57,14.56,21.44S398,808.34,398,808.34s22.65-31.78,47-16.8,103,16.1,103,16.1,104.33-27.86,135,17.12-1,31.78-1,31.78l-43.21,22.34L510.64,999.08l-98.77-9.89c-12.43-14.16-32-31.85-55.51-31.53-35.61.5-45.45,42-81.05,44.26-42.78,2.72-67.21-54.71-97.63-49.2-13.38,2.42-27.89,17-36.56,65.87l-88.75,42.57L-2.38,991.4h0Z" transform="translate(2.38 3)"/><path class="cls-14" d="M.5,858.62c156,68.35,237.35,0,237.35,0s-39.84,1.36,15.77-21,155.19,16.91,155.19,16.91,22.4,32.49,48.13,18.27S564,860,564,860s107,31.13,140.25-12.86,0-31.8,0-31.8l-44-23.69L531.63,667.46,429.1,674.24C415.77,688,394.9,705.07,370.63,704c-36.83-1.61-45.66-43.4-82.44-46.78-44.18-4.06-71.32,52.57-102.62,46.11-13.77-2.85-28.31-17.89-35.69-67L59.42,591,.5,659h0Z" transform="translate(2.38 3)"/><path class="cls-15" d="M192.5,913.5" transform="translate(2.38 3)"/><path class="cls-16" d="M1929.32,871.09l-361,3.81c6.4,3.19,13.48,5.94,15.64,3.55,4.81-5.33-13.33-37.72-37-53.45-60.51-40.27-172.64,18.21-173,17,0-.15,1.62-.85,8-3a450.27,450.27,0,0,1-183.9,34.46Q740.41,848.74,735,876.09q-2.88,14.6,123,44a251.67,251.67,0,0,0,102,17A247.07,247.07,0,0,0,1038.9,921l49.93,25.2,174.66,44.9c45.79,50,243.14,77.78,370.2,77,183.3-1.14,298.06-36.28,296.94-69Q1930,935.08,1929.32,871.09Z" transform="translate(2.38 3)"/><path class="cls-14" d="M1920.36,893l-361-3.81h0s45.22,1.44-17.9-22.32-176.16,18-176.16,18-25.44,34.57-54.64,19.45-121.52-13.69-121.52-13.69Q731.44,915.35,726.06,888q-2.87-14.6,123-44a251.59,251.59,0,0,1,102-17,247.06,247.06,0,0,1,78.88,16.1l49.93-25.2L1254.54,773l137.35-150c21.15,15.15,105.78,72.21,232.84,73,183.3,1.13,287.8-115.9,295.63-125q2.17,45.29,2.62,93,.43,51.9-1.31,101Q1921,829,1920.36,893Z" transform="translate(2.38 3)"/><path class="cls-17" d="M.5,798c240.24-3.53,336.13,147.16,498,146.13S838.09,985.28,1039.87,974s394.57-40.63,519.44-67.37,297.67-68.87,358.61-55,0,231.41,0,231.41H0Z" transform="translate(2.38 3)"/><path class="cls-7" d="M1995,659" transform="translate(2.38 3)"/><path class="cls-9" d="M781,561" transform="translate(2.38 3)"/><path class="cls-9" d="M932.87,571.42q-5.75-19.15-11.48-38.32,11.85,15.21,23.71,30.43L983.3,597l9,8.74L996,632.63l-14.91,17-31.59-19.38-26.81,27.33q13.13-32.94,26.26-65.89Z" transform="translate(2.38 3)"/><polygon class="cls-9" points="998.81 690 1021.74 646.95 1055.38 668 1055.38 725 998.81 690"/><polygon class="cls-9" points="1027.38 576 1027.38 627.28 1071.38 560 1027.38 576"/><path class="cls-18" d="M1649,175a41.58,41.58,0,0,0,14-1c15.06-3.72,23.38-16.53,24-16,.42.36-3.5,6.13-20,27a26.78,26.78,0,0,1-18-10Z" transform="translate(2.38 3)"/><path class="cls-7" d="M1685,206" transform="translate(2.38 3)"/><path class="cls-7" d="M1683,214" transform="translate(2.38 3)"/><polygon class="cls-18" points="1615.21 205.16 1634.36 217.98 1651.48 199.29 1634.01 209.21 1615.21 205.16"/><polygon class="cls-18" points="1576.38 179 1559.38 183 1572.38 190 1598.38 179 1576.38 179"/><path class="cls-19" d="M739,762" transform="translate(2.38 3)"/><path class="cls-20" d="M867,756" transform="translate(2.38 3)"/><path class="cls-21" d="M856,735" transform="translate(2.38 3)"/><polygon class="cls-7" points="1419.38 533 1375.38 585 1419.38 642.32 1580.38 659 1419.38 533"/><polygon class="cls-7" points="1443.16 479.22 1476.9 542.1 1516.26 515.74 1478.73 463.89 1500.93 429.35 1443.16 479.22"/><polygon class="cls-7" points="542.38 406 578.38 406 614.38 480 542.38 406"/><polygon class="cls-17" points="136.38 617 93.08 843 179.68 843 136.38 617"/><polygon class="cls-17" points="179.95 681 136.65 907 223.25 907 179.95 681"/><polygon class="cls-17" points="109.95 717 66.64 943 153.25 943 109.95 717"/><polygon class="cls-6" points="1577.94 231.79 1564.09 304.03 1591.78 304.03 1577.94 231.79"/><polygon class="cls-6" points="1591.86 252.25 1578.02 324.49 1605.71 324.49 1591.86 252.25"/><polygon class="cls-6" points="1569.49 263.75 1555.64 336 1583.33 336 1569.49 263.75"/><polygon class="cls-7" points="61.06 132.11 42.17 230.68 79.94 230.68 61.06 132.11"/><polygon class="cls-7" points="80.06 160.02 61.18 258.59 98.95 258.59 80.06 160.02"/><polygon class="cls-7" points="49.53 175.72 30.64 274.3 68.42 274.3 49.53 175.72"/><polygon class="cls-7" points="129.49 126.45 110.6 225.02 148.37 225.02 129.49 126.45"/><polygon class="cls-7" points="148.49 154.36 129.6 252.94 167.38 252.94 148.49 154.36"/><polygon class="cls-7" points="117.96 170.07 99.07 268.64 136.84 268.64 117.96 170.07"/><polygon class="cls-7" points="1865.67 156.93 1851.83 229.17 1879.52 229.17 1865.67 156.93"/><polygon class="cls-7" points="1879.6 177.39 1865.76 249.63 1893.44 249.63 1879.6 177.39"/><polygon class="cls-7" points="1857.22 188.9 1843.38 261.14 1871.07 261.14 1857.22 188.9"/><polygon class="cls-17" points="1765.17 703.15 1716.54 957 1813.81 957 1765.17 703.15"/><polygon class="cls-17" points="1670.12 762.15 1621.48 1016 1718.75 1016 1670.12 762.15"/><polygon class="cls-17" points="1857.45 779 1814.15 1005 1900.75 1005 1857.45 779"/><polygon class="cls-17" points="1685.45 667.15 1636.81 921 1734.09 921 1685.45 667.15"/><polygon class="cls-17" points="243.45 657.15 194.81 911 292.09 911 243.45 657.15"/><polygon class="cls-17" points="49.45 576.15 0.81 830 98.09 830 49.45 576.15"/><polygon class="cls-17" points="347.69 708 304.39 934 391 934 347.69 708"/><polygon class="cls-17" points="391.26 772 347.96 998 434.56 998 391.26 772"/><polygon class="cls-17" points="454.77 748.15 406.13 1002 503.41 1002 454.77 748.15"/></g></svg>